<?xml version="1.0" encoding="utf-8"?>
<!-- Generator: Adobe Illustrator 16.0.0, SVG Export Plug-In . SVG Version: 6.00 Build 0)  -->
<!DOCTYPE svg PUBLIC "-//W3C//DTD SVG 1.1//EN" "http://www.w3.org/Graphics/SVG/1.1/DTD/svg11.dtd">
<svg version="1.1" id="Layer_1" xmlns="http://www.w3.org/2000/svg" xmlns:xlink="http://www.w3.org/1999/xlink" x="0px" y="0px"
	 width="35.294px" height="35.925px" viewBox="423.767 241.057 35.294 35.925"
	 enable-background="new 423.767 241.057 35.294 35.925" xml:space="preserve">
<path fill="#595859" d="M436.665,273.214h7.856h7.836h4.377h2.327v-7.837c-0.009-2.107-1.686-3.219-2.64-3.341l-2.386-6.156
	c-0.444-1.178-1.419-2.18-3.263-2.189h-3.361h-5.745h-3.42c-1.835,0.008-2.809,1.012-3.263,2.189l-2.384,6.156
	c-0.947,0.122-2.622,1.233-2.619,3.341v7.837h0.71h1.616H436.665z M454.487,264.341c1.104-0.009,2.006,0.922,2.014,2.073
	c-0.008,1.143-0.909,2.072-2.014,2.069c-1.123,0.003-2.024-0.927-2.033-2.069C452.463,265.262,453.364,264.332,454.487,264.341
	 M436.882,257.131c0.217-0.688,0.554-1.18,1.349-1.192h6.271h0.021h6.292c0.784,0.013,1.121,0.504,1.348,1.192l1.8,4.846h-9.438
	h-0.021h-9.42L436.882,257.131z M434.555,264.341c1.11-0.009,2.015,0.922,2.014,2.073c0.002,1.143-0.902,2.072-2.014,2.069
	c-1.114,0.003-2.019-0.927-2.014-2.069C432.537,265.262,433.44,264.332,434.555,264.341"/>
<path fill="#595859" d="M435.432,276.982h-1.752c-0.625,0-1.137-0.512-1.137-1.137v-3.467c0-0.626,0.512-1.137,1.137-1.137h1.752
	c0.625,0,1.137,0.511,1.137,1.137v3.467C436.568,276.47,436.057,276.982,435.432,276.982"/>
<path fill="#595859" d="M455.363,276.982h-1.752c-0.625,0-1.137-0.512-1.137-1.137v-3.467c0-0.626,0.512-1.137,1.137-1.137h1.752
	c0.625,0,1.139,0.511,1.139,1.137v3.467C456.502,276.47,455.988,276.982,455.363,276.982"/>
<path fill="#595859" d="M427.172,259.73l11.119-11.179c0.046-0.045,0.109-0.062,0.173-0.046c0.294,0.074,0.588,0.122,0.883,0.122
	c0.952,0,1.845-0.357,2.529-1.042c0.834-0.833,1.221-2.054,0.981-3.214v-0.03c-0.028-0.03-0.059-0.061-0.119-0.089
	c-0.059,0-0.089,0-0.118,0.028l-2.055,2.055L438.6,245.8l-0.535-1.965l2.055-2.055c0.028-0.029,0.06-0.089,0.028-0.148
	c-0.028-0.06-0.059-0.089-0.119-0.089c-0.237-0.03-0.444-0.061-0.684-0.061c-0.953,0-1.847,0.358-2.53,1.042
	c-0.685,0.686-1.042,1.578-1.042,2.53c0,0.328,0.06,0.655,0.119,0.953L424.7,257.26c-0.327,0.327-0.507,0.774-0.507,1.22
	c0,0.447,0.18,0.894,0.507,1.222c0.327,0.326,0.773,0.506,1.222,0.506C426.396,260.236,426.844,260.058,427.172,259.73
	 M437.023,242.733c0.625-0.624,1.43-0.952,2.322-0.952c0.119,0,0.237,0,0.356,0.03l-1.904,1.875c-0.03,0.03-0.061,0.089-0.03,0.149
	l0.564,2.112c0,0.061,0.061,0.091,0.12,0.119l2.112,0.566c0.062,0,0.119,0,0.149-0.03l1.904-1.905
	c0.118,0.982-0.237,1.966-0.952,2.68c-0.626,0.625-1.43,0.953-2.321,0.953c-0.328,0-0.625-0.061-0.923-0.149
	c-0.141-0.051-0.715-0.203-1.399-0.834c-0.402-0.37-0.654-0.863-0.834-1.369c-0.089-0.298-0.148-0.625-0.148-0.952
	C436.07,244.162,436.398,243.359,437.023,242.733 M424.492,258.51c0-0.387,0.148-0.744,0.417-1.012l11.104-11.163
	c0.178,0.477,0.445,0.893,0.804,1.25c0.357,0.357,0.773,0.626,1.221,0.804l-11.072,11.133c-0.27,0.269-0.626,0.417-1.014,0.417
	c-0.387,0-0.744-0.148-1.013-0.417C424.672,259.254,424.492,258.897,424.492,258.51"/>
<path fill="#595859" d="M426.024,260.636L426.024,260.636c-0.044,0-0.087-0.001-0.131-0.004h-0.002c-0.539,0-1.092-0.23-1.493-0.63
	c-0.401-0.401-0.631-0.956-0.631-1.522c0-0.565,0.229-1.121,0.631-1.521l11.033-11.091c-0.046-0.253-0.084-0.529-0.084-0.812
	c0-1.074,0.414-2.079,1.166-2.832c0.753-0.752,1.759-1.166,2.832-1.166c0.241,0,0.45,0.026,0.669,0.054l0.051,0.008
	c0.131,0.008,0.336,0.065,0.465,0.322c0.106,0.214,0.062,0.472-0.109,0.643l-1.88,1.878l0.407,1.491l1.491,0.406l1.879-1.879
	c0.154-0.154,0.334-0.154,0.42-0.154c0.066,0,0.132,0.015,0.191,0.045c0.12,0.06,0.188,0.128,0.228,0.168
	c0.078,0.076,0.123,0.181,0.126,0.289c0.246,1.27-0.176,2.63-1.104,3.56c-0.753,0.752-1.758,1.167-2.832,1.167
	c-0.266,0-0.544-0.034-0.853-0.103l-11.021,11.079C427.082,260.421,426.568,260.636,426.024,260.636 M435.886,247.066
	l-10.675,10.732c-0.189,0.188-0.293,0.44-0.293,0.712c0,0.251,0.113,0.503,0.32,0.711c0.377,0.376,1.045,0.376,1.422,0
	l10.654-10.712c-0.292-0.173-0.56-0.381-0.802-0.622C436.268,247.64,436.058,247.366,435.886,247.066 M438.597,242.301
	c-0.479,0.125-0.91,0.372-1.271,0.734c-0.535,0.533-0.831,1.227-0.856,2.005c0,0.247,0.044,0.525,0.131,0.814
	c0.182,0.515,0.417,0.906,0.714,1.179c0.555,0.511,1.021,0.667,1.196,0.726l0.061,0.021c0.278,0.083,0.525,0.123,0.776,0.123
	c0.779,0,1.479-0.285,2.02-0.826c0.365-0.366,0.62-0.804,0.751-1.272l-1.1,1.101c-0.156,0.154-0.355,0.154-0.451,0.154
	c-0.037,0-0.074-0.005-0.109-0.014l-2.112-0.566c-0.027-0.008-0.056-0.018-0.079-0.03c-0.208-0.103-0.326-0.245-0.353-0.426
	l-0.55-2.052c-0.072-0.199-0.022-0.428,0.132-0.585L438.597,242.301z"/>
</svg>
