<?xml version="1.0" encoding="utf-8"?>
<!-- Generator: Adobe Illustrator 16.0.0, SVG Export Plug-In . SVG Version: 6.00 Build 0)  -->
<!DOCTYPE svg PUBLIC "-//W3C//DTD SVG 1.1//EN" "http://www.w3.org/Graphics/SVG/1.1/DTD/svg11.dtd">
<svg version="1.1" id="Layer_1" xmlns="http://www.w3.org/2000/svg" xmlns:xlink="http://www.w3.org/1999/xlink" x="0px" y="0px"
	 width="54.468px" height="25.413px" viewBox="393.822 214.891 54.468 25.413"
	 enable-background="new 393.822 214.891 54.468 25.413" xml:space="preserve">
<path fill="#595859" d="M401.427,231.314c2.48,0,4.495,2.014,4.495,4.495c0,2.482-2.015,4.495-4.495,4.495
	c-2.482,0-4.495-2.013-4.495-4.495C396.931,233.327,398.943,231.314,401.427,231.314"/>
<path fill="#595859" d="M435.518,231.314c2.48,0,4.495,2.014,4.495,4.495c0,2.482-2.015,4.495-4.495,4.495
	c-2.482,0-4.495-2.013-4.495-4.495C431.022,233.327,433.035,231.314,435.518,231.314"/>
<path fill="#595859" d="M432.033,231.314h-22.915v-14.487l-11.788,0.896c0,0-2.586,6.401-3.508,8.656v6.103v2.191
	c0,0.628,0.508,1.136,1.135,1.136h0.78c0-3.143,2.547-5.688,5.688-5.688c3.143,0,5.688,2.547,5.688,5.688h22.715
	C429.829,233.98,430.692,232.354,432.033,231.314 M404.574,225.371l-9.074,1.141l2.621-6.806l6.453-0.492V225.371z"/>
<path fill="#595859" d="M448.28,231.313h-9.277c1.342,1.041,2.203,2.667,2.203,4.495h1.328h2.355l3.4-1.204L448.28,231.313z"/>
<path fill="#595859" d="M417.222,220.356c0.459-0.35,0.794-0.682,1.006-0.999c0.214-0.315,0.319-0.67,0.319-1.063
	c0-0.239-0.046-0.443-0.139-0.613c-0.093-0.169-0.213-0.308-0.359-0.417c-0.147-0.109-0.318-0.188-0.517-0.238
	c-0.195-0.049-0.393-0.071-0.588-0.071c-0.558,0-1.095,0.108-1.612,0.326c-0.519,0.219-1.006,0.446-1.464,0.688l-0.981-1.702
	c0.262-0.163,0.558-0.327,0.883-0.491c0.327-0.163,0.678-0.31,1.049-0.441c0.371-0.13,0.754-0.236,1.152-0.319
	c0.396-0.081,0.799-0.122,1.202-0.122c0.621,0,1.17,0.079,1.645,0.237c0.476,0.158,0.874,0.379,1.194,0.663
	c0.321,0.282,0.566,0.621,0.736,1.015c0.168,0.391,0.254,0.823,0.254,1.291c0,0.426-0.059,0.813-0.173,1.162
	c-0.114,0.35-0.278,0.679-0.49,0.991c-0.213,0.31-0.467,0.606-0.761,0.891c-0.296,0.283-0.622,0.567-0.982,0.852l-2.896,2.288
	c-0.077,0.066-0.114,0.138-0.114,0.214c0,0.119,0.083,0.181,0.246,0.181h5.414v2.012h-7.034c-0.524,0-0.952-0.139-1.285-0.417
	c-0.331-0.279-0.498-0.679-0.498-1.202c0-0.24,0.065-0.5,0.196-0.777s0.364-0.554,0.703-0.826L417.222,220.356z"/>
<path fill="#595859" d="M427.53,224.036h-3.501c-0.699,0-1.225-0.169-1.579-0.507c-0.354-0.339-0.531-0.775-0.531-1.31
	c0-0.556,0.294-1.156,0.883-1.8l5.056-5.382h2.078v6.969h1.768v2.029h-1.768v2.65h-2.404L427.53,224.036L427.53,224.036z
	 M427.53,222.007v-3.844l-3.207,3.305c-0.087,0.119-0.131,0.219-0.131,0.294c0,0.066,0.023,0.123,0.073,0.172
	c0.049,0.049,0.135,0.073,0.253,0.073H427.53z"/>
<path fill="#595859" d="M433.321,214.891h2.39v3.648c0.35-0.131,0.689-0.24,1.021-0.327c0.334-0.087,0.723-0.132,1.171-0.132
	c0.6,0,1.108,0.086,1.528,0.255s0.756,0.399,1.006,0.694c0.251,0.295,0.435,0.637,0.55,1.022c0.114,0.388,0.171,0.799,0.171,1.236
	v5.398h-2.403v-5.235c0-0.469-0.126-0.811-0.377-1.023c-0.25-0.212-0.558-0.319-0.917-0.319c-0.37,0-0.705,0.047-1.007,0.141
	c-0.299,0.093-0.552,0.188-0.76,0.286v6.151h-2.373V214.891z"/>
<path fill="#595859" d="M401.427,231.314c2.48,0,4.495,2.014,4.495,4.495c0,2.482-2.015,4.495-4.495,4.495
	c-2.482,0-4.495-2.013-4.495-4.495C396.931,233.327,398.943,231.314,401.427,231.314"/>
<path fill="#595859" d="M435.518,231.314c2.48,0,4.495,2.014,4.495,4.495c0,2.482-2.015,4.495-4.495,4.495
	c-2.482,0-4.495-2.013-4.495-4.495C431.022,233.327,433.035,231.314,435.518,231.314"/>
<path fill="#595859" d="M432.033,231.314h-22.915v-14.487l-11.788,0.896c0,0-2.586,6.401-3.508,8.656v6.103v2.191
	c0,0.628,0.508,1.136,1.135,1.136h0.78c0-3.143,2.547-5.688,5.688-5.688c3.143,0,5.688,2.547,5.688,5.688h22.715
	C429.829,233.98,430.692,232.354,432.033,231.314 M404.574,225.371l-9.074,1.141l2.621-6.806l6.453-0.492V225.371z"/>
<path fill="#595859" d="M448.28,231.313h-9.277c1.342,1.041,2.203,2.667,2.203,4.495h1.328h2.355l3.4-1.204L448.28,231.313z"/>
<path fill="#595859" d="M417.222,220.356c0.459-0.35,0.794-0.682,1.006-0.999c0.214-0.315,0.319-0.67,0.319-1.063
	c0-0.239-0.046-0.443-0.139-0.613c-0.093-0.169-0.213-0.308-0.359-0.417c-0.147-0.109-0.318-0.188-0.517-0.238
	c-0.195-0.049-0.393-0.071-0.588-0.071c-0.558,0-1.095,0.108-1.612,0.326c-0.519,0.219-1.006,0.446-1.464,0.688l-0.981-1.702
	c0.262-0.163,0.558-0.327,0.883-0.491c0.327-0.163,0.678-0.31,1.049-0.441c0.371-0.13,0.754-0.236,1.152-0.319
	c0.396-0.081,0.799-0.122,1.202-0.122c0.621,0,1.17,0.079,1.645,0.237c0.476,0.158,0.874,0.379,1.194,0.663
	c0.321,0.282,0.566,0.621,0.736,1.015c0.168,0.391,0.254,0.823,0.254,1.291c0,0.426-0.059,0.813-0.173,1.162
	c-0.114,0.35-0.278,0.679-0.49,0.991c-0.213,0.31-0.467,0.606-0.761,0.891c-0.296,0.283-0.622,0.567-0.982,0.852l-2.896,2.288
	c-0.077,0.066-0.114,0.138-0.114,0.214c0,0.119,0.083,0.181,0.246,0.181h5.414v2.012h-7.034c-0.524,0-0.952-0.139-1.285-0.417
	c-0.331-0.279-0.498-0.679-0.498-1.202c0-0.24,0.065-0.5,0.196-0.777s0.364-0.554,0.703-0.826L417.222,220.356z"/>
<path fill="#595859" d="M427.53,224.036h-3.501c-0.699,0-1.225-0.169-1.579-0.507c-0.354-0.339-0.531-0.775-0.531-1.31
	c0-0.556,0.294-1.156,0.883-1.8l5.056-5.382h2.078v6.969h1.768v2.029h-1.768v2.65h-2.404L427.53,224.036L427.53,224.036z
	 M427.53,222.007v-3.844l-3.207,3.305c-0.087,0.119-0.131,0.219-0.131,0.294c0,0.066,0.023,0.123,0.073,0.172
	c0.049,0.049,0.135,0.073,0.253,0.073H427.53z"/>
<path fill="#595859" d="M433.321,214.891h2.39v3.648c0.35-0.131,0.689-0.24,1.021-0.327c0.334-0.087,0.723-0.132,1.171-0.132
	c0.6,0,1.108,0.086,1.528,0.255s0.756,0.399,1.006,0.694c0.251,0.295,0.435,0.637,0.55,1.022c0.114,0.388,0.171,0.799,0.171,1.236
	v5.398h-2.403v-5.235c0-0.469-0.126-0.811-0.377-1.023c-0.25-0.212-0.558-0.319-0.917-0.319c-0.37,0-0.705,0.047-1.007,0.141
	c-0.299,0.093-0.552,0.188-0.76,0.286v6.151h-2.373V214.891z"/>
</svg>
