<?xml version="1.0" encoding="utf-8"?>
<!-- Generator: Adobe Illustrator 16.0.0, SVG Export Plug-In . SVG Version: 6.00 Build 0)  -->
<!DOCTYPE svg PUBLIC "-//W3C//DTD SVG 1.1//EN" "http://www.w3.org/Graphics/SVG/1.1/DTD/svg11.dtd">
<svg version="1.1" id="Layer_1" xmlns="http://www.w3.org/2000/svg" xmlns:xlink="http://www.w3.org/1999/xlink" x="0px" y="0px"
	 width="27.77px" height="30.769px" viewBox="427.762 243.065 27.77 30.769" enable-background="new 427.762 243.065 27.77 30.769"
	 xml:space="preserve">
<rect x="431.357" y="247.788" fill="#595859" width="15.601" height="0.991"/>
<rect x="431.357" y="251.281" fill="#595859" width="15.601" height="0.992"/>
<path fill="#595859" d="M450.552,267.101c0.033-0.104,0.062-0.213,0.09-0.32l-0.09,0.029V267.101z"/>
<polygon fill="#595859" points="448.848,267.367 443.946,268.966 448.848,268.966 "/>
<path fill="#595859" d="M453.164,257.924l-2.611,0.854v-14.859c0-0.471-0.382-0.854-0.854-0.854h-21.084
	c-0.471,0-0.853,0.383-0.853,0.854v25.9c0,0.473,0.382,0.854,0.853,0.854h5.931l0.401,1.233l2.441-0.798
	c1.604,1.679,3.863,2.726,6.362,2.726c4.468,0,8.169-3.341,8.738-7.656l3.043-0.994L453.164,257.924z M450.064,265.366l-0.621,0.983
	l-2.664-1.561c-0.094-0.056-0.179-0.092-0.258-0.111c-0.078-0.021-0.175-0.013-0.291,0.022l-0.213,0.063l0.693,2.276l-1.14,0.346
	l-1.664-5.47l1.139-0.349l0.679,2.231l0.221-0.067c0.191-0.058,0.32-0.172,0.385-0.341l1.08-2.634l1.06,0.375l-1.12,2.637
	L450.064,265.366z M432.578,264.647l1.41,4.32h-4.521V244.77h19.38v13.062c-1.454-1.033-3.221-1.637-5.097-1.637
	c-4.469,0-8.169,3.343-8.738,7.655L432.578,264.647z M436.859,263.25c0.787-3.071,3.578-5.35,6.893-5.35
	c1.688,0,3.267,0.607,4.506,1.626L436.859,263.25z M438.637,266.523c-0.111-0.363-0.169-0.73-0.175-1.104
	c-0.006-0.371,0.06-0.723,0.193-1.053c0.133-0.331,0.345-0.628,0.629-0.89c0.285-0.261,0.662-0.463,1.134-0.604
	c0.489-0.15,0.929-0.196,1.313-0.141c0.383,0.059,0.721,0.188,1.008,0.391c0.289,0.201,0.531,0.46,0.729,0.771
	c0.196,0.313,0.353,0.651,0.462,1.018c0.11,0.362,0.17,0.731,0.176,1.105s-0.058,0.728-0.191,1.059
	c-0.135,0.33-0.344,0.627-0.629,0.888c-0.286,0.261-0.663,0.463-1.135,0.604c-0.49,0.15-0.928,0.196-1.312,0.141
	c-0.386-0.059-0.726-0.186-1.017-0.383c-0.297-0.209-0.541-0.472-0.731-0.784C438.898,267.226,438.748,266.887,438.637,266.523
	 M450.552,267.101c-0.44,1.438-1.326,2.68-2.494,3.57c-1.196,0.913-2.688,1.457-4.307,1.457c-1.617,0-3.11-0.544-4.309-1.457
	c-0.067-0.053-0.134-0.112-0.201-0.168l4.705-1.536l4.9-1.601l1.704-0.558l0.09-0.029
	C450.613,266.888,450.586,266.996,450.552,267.101"/>
<path fill="#595859" d="M439.836,266.158c0.119,0.396,0.29,0.724,0.511,0.983c0.222,0.262,0.492,0.427,0.811,0.495
	c0.206,0.043,0.438,0.025,0.695-0.054c0.254-0.077,0.457-0.192,0.608-0.349c0.151-0.151,0.263-0.332,0.329-0.534
	c0.068-0.202,0.096-0.428,0.081-0.673c-0.013-0.243-0.059-0.494-0.138-0.753c-0.079-0.258-0.181-0.49-0.304-0.698
	c-0.125-0.208-0.271-0.38-0.442-0.513c-0.17-0.134-0.36-0.221-0.572-0.261c-0.212-0.041-0.443-0.023-0.695,0.054
	c-0.254,0.077-0.455,0.191-0.608,0.344c-0.153,0.151-0.263,0.329-0.331,0.535c-0.065,0.205-0.094,0.431-0.081,0.672
	C439.712,265.65,439.757,265.9,439.836,266.158"/>
</svg>
