<?xml version="1.0" encoding="utf-8"?>
<!-- Generator: Adobe Illustrator 16.0.0, SVG Export Plug-In . SVG Version: 6.00 Build 0)  -->
<!DOCTYPE svg PUBLIC "-//W3C//DTD SVG 1.1//EN" "http://www.w3.org/Graphics/SVG/1.1/DTD/svg11.dtd">
<svg version="1.1" id="Layer_1" xmlns="http://www.w3.org/2000/svg" xmlns:xlink="http://www.w3.org/1999/xlink" x="0px" y="0px"
	 width="65.4507px" height="61.4941px" viewBox="0 0 65.4507 61.4941" enable-background="new 0 0 65.4507 61.4941"
	 xml:space="preserve">
<path fill="#585758" d="M47.8999,45.3604h5.166l-0.0039-5.9463c0,0,0.6426-6.4668-1.2578-11.189l3.4033-2.7202v-1.1475
	c0.0029-0.4966-0.3613-0.9014-0.8086-0.9014l-4.5234,0.7422c0,0-2.3613-3.7129-3.2949-4.7485
	c-0.9307-1.0371-5.5527-2.9531-13.1284-2.8721c-7.936,0.0854-11.8667,1.8281-12.8071,2.8721
	c-0.9272,1.0327-3.2773,4.7192-3.2773,4.7192l-4.4854-0.7129c-0.4458,0-0.8105,0.4048-0.8105,0.9014v1.1475l3.3477,2.7104
	c-1.9028,4.7212-1.2598,11.1987-1.2598,11.1987v5.9463h5.167v-5.6318l28.5732,0.0117V45.3604z M18.0762,27.0908l3.1626-5.6348
	c0.4229-0.7026,1.4097-1.5278,2.1885-1.833c0,0,3.936-1.3643,10.272-1.3643c6.3335,0,10.27,1.3652,10.27,1.3652
	c0.7793,0.3042,1.7646,1.1294,2.1895,1.832l3.1602,5.6348c0.3896,0.7207,0.0205,1.311-0.8203,1.311H18.8965
	C18.0552,28.4019,17.686,27.8115,18.0762,27.0908z M21.1113,36.4102c-1.4863,0-2.686-1.1963-2.686-2.668
	c0-1.4707,1.2036-2.6636,2.686-2.6636c1.4819,0,2.6841,1.1929,2.6841,2.6636C23.7954,35.2139,22.5933,36.4102,21.1113,36.4102z
	 M46.5151,36.4102c-1.4834,0-2.6865-1.1963-2.6865-2.668c0-1.4707,1.2051-2.6636,2.6865-2.6636s2.6836,1.1929,2.6836,2.6636
	C49.1987,35.2139,47.9966,36.4102,46.5151,36.4102z"/>
<path fill="#585758" d="M64.1987,5.9199c-0.0068-0.0068-0.0117-0.0156-0.0186-0.0225c-0.1094-0.1074-0.2373-0.1948-0.3574-0.2905
	c-0.0957-0.0762-0.1826-0.1631-0.2842-0.231c-0.0293-0.0195-0.0635-0.0313-0.0938-0.0503
	c-0.4395-0.2769-0.9268-0.4858-1.4551-0.5923c-0.2822-0.0571-0.5732-0.0869-0.8721-0.0869h-5.0586h-2.9219
	c-0.376,0-0.6826,0.2998-0.6826,0.6685s0.3066,0.6685,0.6826,0.6685h2.9219h5.0586c0.2002,0,0.3955,0.021,0.585,0.0581
	c0.0215,0.0044,0.042,0.0127,0.0635,0.0171c1.3223,0.293,2.3145,1.4536,2.3193,2.8438v42.4072c0,2.623-1.1094,4.1885-2.9678,4.1885
	H19.9165l3.8413-3.7686c0.1279-0.126,0.1987-0.2939,0.1987-0.4707c0-0.1777-0.0708-0.3457-0.1987-0.4717
	c-0.1289-0.127-0.3008-0.1973-0.4839-0.1973s-0.355,0.0703-0.4839,0.1973l-4.8691,4.7842c-0.1274,0.126-0.1978,0.292-0.1978,0.4697
	c-0.0005,0.1777,0.0703,0.3457,0.1978,0.4717l4.8691,4.7832c0.1299,0.1279,0.3018,0.1982,0.4849,0.1982s0.3545-0.0703,0.4839-0.1982
	c0.1274-0.126,0.1978-0.292,0.1978-0.4697c0.0005-0.1777-0.0703-0.3457-0.1973-0.4717l-3.5898-3.5195h40.9482
	c2.3887,0,4.333-1.9141,4.333-4.2656V13.5547V8.9121V8.9116C65.4507,7.7461,64.9712,6.6904,64.1987,5.9199z"/>
<path fill="#585758" d="M4.3325,56.835C1.9434,56.835,0,54.9209,0,52.5693V8.9116c0-2.3521,1.9434-4.2651,4.3325-4.2651h42.8613
	l-3.5801-3.5078c-0.127-0.125-0.1973-0.292-0.1973-0.4692c0-0.1782,0.0703-0.3457,0.1982-0.4722C43.7437,0.0703,43.9155,0,44.0981,0
	c0.1836,0,0.3555,0.0703,0.4844,0.1978l4.8359,4.748c0.1279,0.126,0.1982,0.2939,0.1982,0.4717
	c0,0.1772-0.0703,0.3438-0.1982,0.4697l-4.835,4.7471c-0.1299,0.1279-0.3027,0.1978-0.4854,0.1978s-0.3545-0.0698-0.4834-0.1973
	c-0.1279-0.126-0.1982-0.2935-0.1982-0.4712s0.0703-0.3452,0.1982-0.4707l3.7852-3.7095H4.3325
	c-1.6367,0-2.9683,1.314-2.9683,2.9282v43.6577c0,1.6152,1.3315,2.9287,2.9683,2.9287h9.5776c0.3765,0,0.6821,0.2998,0.6821,0.668
	c0,0.3691-0.3057,0.6689-0.6821,0.6689H4.3325z"/>
</svg>
