<?xml version="1.0" encoding="UTF-8"?>
<svg width="30px" height="28px" viewBox="0 0 30 28" version="1.1" xmlns="http://www.w3.org/2000/svg" xmlns:xlink="http://www.w3.org/1999/xlink">
    <!-- Generator: Sketch 59.1 (86144) - https://sketch.com -->
    <title>Group 5</title>
    <desc>Created with Sketch.</desc>
    <g id="Page-1" stroke="none" stroke-width="1" fill="none" fill-rule="evenodd">
        <g id="Group-5" fill="#575757">
            <path d="M23.906,23.002 L20.143,26.17 C20.131,26.181 20.113,26.18 20.103,26.168 L1.884,4.533 C1.874,4.522 1.876,4.504 1.888,4.493 L5.651,1.325 C5.663,1.315 5.68,1.315 5.69,1.327 L6.416,2.188 C6.426,2.2 6.424,2.217 6.411,2.228 L4.678,3.687 C4.667,3.697 4.665,3.714 4.675,3.726 L5.195,4.344 C5.205,4.356 5.222,4.357 5.235,4.346 L6.967,2.888 C6.979,2.877 6.997,2.878 7.007,2.89 L7.861,3.904 C7.871,3.916 7.869,3.934 7.856,3.944 L6.124,5.402 C6.112,5.413 6.11,5.43 6.119,5.442 L6.64,6.061 C6.65,6.072 6.668,6.073 6.679,6.063 L8.412,4.604 C8.425,4.593 8.442,4.594 8.452,4.606 L9.376,5.703 C9.385,5.714 9.384,5.732 9.371,5.742 L6.687,8.002 C6.675,8.013 6.673,8.03 6.682,8.042 L7.198,8.654 C7.208,8.666 7.225,8.667 7.238,8.656 L9.922,6.397 C9.934,6.386 9.952,6.387 9.962,6.398 L10.83,7.429 C10.84,7.441 10.837,7.459 10.825,7.469 L9.093,8.928 C9.081,8.938 9.078,8.956 9.088,8.967 L9.597,9.572 C9.607,9.584 9.625,9.585 9.637,9.574 L11.369,8.115 C11.382,8.105 11.399,8.106 11.409,8.117 L12.26,9.129 C12.27,9.14 12.268,9.158 12.256,9.169 L10.524,10.627 C10.511,10.637 10.51,10.655 10.519,10.667 L11.026,11.269 C11.036,11.28 11.053,11.281 11.066,11.271 L12.798,9.812 C12.81,9.801 12.828,9.802 12.838,9.814 L18.083,16.043 C18.093,16.054 18.091,16.071 18.078,16.082 L15.394,18.342 C15.382,18.353 15.38,18.37 15.389,18.382 L15.91,19 C15.92,19.012 15.938,19.013 15.95,19.002 L18.634,16.742 C18.646,16.731 18.664,16.732 18.674,16.744 L19.57,17.808 C19.579,17.819 19.577,17.837 19.565,17.848 L17.833,19.306 C17.82,19.316 17.818,19.334 17.828,19.346 L18.348,19.964 C18.358,19.976 18.377,19.977 18.388,19.966 L20.121,18.507 C20.133,18.497 20.151,18.498 20.161,18.51 L21.056,19.573 C21.066,19.585 21.064,19.603 21.052,19.612 L19.319,21.071 C19.307,21.082 19.305,21.1 19.315,21.111 L19.849,21.746 C19.859,21.758 19.877,21.759 19.889,21.748 L21.622,20.289 C21.634,20.279 21.651,20.28 21.661,20.291 L22.571,21.372 C22.581,21.383 22.579,21.401 22.566,21.411 L19.883,23.672 C19.87,23.682 19.868,23.699 19.878,23.711 L20.385,24.313 C20.394,24.324 20.412,24.325 20.425,24.315 L23.108,22.055 C23.121,22.045 23.138,22.045 23.148,22.057 L23.911,22.962 C23.92,22.974 23.918,22.991 23.906,23.002 L23.906,23.002 Z M5.783,0.013 C5.77,-0.002 5.748,-0.004 5.733,0.008 L0.577,4.35 C0.562,4.363 0.56,4.385 0.573,4.4 L20.071,27.554 C20.084,27.568 20.106,27.57 20.121,27.558 L25.277,23.216 C25.292,23.203 25.294,23.181 25.281,23.166 L5.783,0.013 Z" id="Fill-1"></path>
            <path d="M3.4587,24.5469 C3.0197,24.9169 2.3587,24.8559 1.9827,24.4089 C1.6067,23.9629 1.6587,23.3019 2.0987,22.9319 C2.5387,22.5619 3.1987,22.6219 3.5747,23.0679 C3.9507,23.5149 3.8977,24.1759 3.4587,24.5469 M21.6087,7.6649 C21.5227,7.5709 20.5347,6.4549 20.9007,5.2569 C20.9977,4.9429 21.1647,4.6989 21.3287,4.5169 L25.2967,1.1749 C25.2967,1.1749 21.5607,-0.9521 18.0477,2.0059 C15.0517,4.5299 15.6137,7.8919 15.8447,8.8249 L1.0567,21.2779 C-0.2093,22.3449 -0.3583,24.2509 0.7237,25.5359 C1.8057,26.8209 3.7087,26.9979 4.9757,25.9319 L19.7287,13.5069 C19.7287,13.5069 23.3787,15.5099 27.0637,12.4059 C30.7507,9.3019 28.8127,5.3499 28.8127,5.3499 L24.8447,8.6919 C24.5227,8.8819 24.2337,8.9479 24.0277,8.9699 C22.6787,9.1169 21.6837,7.7689 21.6087,7.6649" id="Fill-3"></path>
        </g>
    </g>
</svg>