<?xml version="1.0" encoding="utf-8"?>
<!-- Generator: Adobe Illustrator 16.0.0, SVG Export Plug-In . SVG Version: 6.00 Build 0)  -->
<!DOCTYPE svg PUBLIC "-//W3C//DTD SVG 1.1//EN" "http://www.w3.org/Graphics/SVG/1.1/DTD/svg11.dtd">
<svg version="1.1" id="Layer_1" xmlns="http://www.w3.org/2000/svg" xmlns:xlink="http://www.w3.org/1999/xlink" x="0px" y="0px"
	 width="40.646px" height="32.439px" viewBox="421.75 243.202 40.646 32.439" enable-background="new 421.75 243.202 40.646 32.439"
	 xml:space="preserve">
<path fill="#595859" d="M458.309,263.383c-1.701,4.086-4.086,5.108-4.086,8.172c0,2.258,1.829,4.086,4.086,4.086
	c2.258,0,4.086-1.828,4.086-4.086C462.395,268.492,460.011,267.469,458.309,263.383"/>
<path fill="#595859" d="M459.716,260.49l-1.811-4.661l-0.068-0.183l-0.018,0.014c-0.207-0.372-0.576-0.615-0.978-0.678l0.008-0.018
	l-0.131,0.006c-0.108-0.008-0.22-0.006-0.326,0.017l-12.86,0.622l-1.387-3.573l-4.464-1.969l1.094-2.479l1.24,0.547
	c0.412,0.182,0.892-0.005,1.072-0.415c0.182-0.41-0.005-0.891-0.416-1.072l-3.968-1.748c-0.411-0.183-0.894,0.003-1.073,0.414
	c-0.183,0.41,0.006,0.892,0.418,1.072l1.237,0.546l-1.093,2.48l-4.269-1.883c-0.035-0.107-0.066-0.217-0.11-0.324
	c-1.188-3.07-4.308-4.726-6.957-3.697c-2.651,1.029-3.836,4.353-2.644,7.421c0.672,1.732,1.797,3.163,3.319,3.849l-0.438,0.997
	c-0.362,0.822,0.01,1.781,0.832,2.145l16.369,7.218l13.459-7.69l1.433,4.025L459.716,260.49z M426.414,252.783
	c-0.944-0.417-1.712-1.438-2.178-2.639c-0.757-1.953-0.126-4.021,1.406-4.616c1.166-0.452,2.518,0.076,3.436,1.214L426.414,252.783z
	"/>
</svg>
