<?xml version="1.0" encoding="utf-8"?>
<!-- Generator: Adobe Illustrator 16.0.0, SVG Export Plug-In . SVG Version: 6.00 Build 0)  -->
<!DOCTYPE svg PUBLIC "-//W3C//DTD SVG 1.1//EN" "http://www.w3.org/Graphics/SVG/1.1/DTD/svg11.dtd">
<svg version="1.1" id="Layer_1" xmlns="http://www.w3.org/2000/svg" xmlns:xlink="http://www.w3.org/1999/xlink" x="0px" y="0px"
	 width="33.768px" height="31.451px" viewBox="424.642 242.982 33.768 31.451"
	 enable-background="new 424.642 242.982 33.768 31.451" xml:space="preserve">
<path fill="#595859" d="M458.41,248.476v0.059c-0.055,0.136-0.155,0.271-0.158,0.407c-0.069,3.228-0.133,6.455-0.188,9.684
	c-0.027,1.551-0.039,3.102-0.059,4.65c-0.005,0.323-0.128,0.586-0.369,0.814c-1.625,1.535-3.238,3.084-4.861,4.619
	c-1.854,1.757-3.723,3.498-5.57,5.262c-0.35,0.333-0.744,0.507-1.197,0.451c-0.762-0.095-1.54-0.165-2.268-0.396
	c-5.951-1.871-11.891-3.776-17.836-5.669c-0.199-0.063-0.262-0.188-0.273-0.384c-0.129-2.009-0.268-4.019-0.397-6.027
	c-0.162-2.488-0.32-4.979-0.484-7.469c-0.023-0.363-0.07-0.725-0.106-1.087v-0.637c0.161-0.59,0.49-1.035,1.027-1.357
	c1.144-0.688,2.268-1.407,3.401-2.112c2.567-1.599,5.139-3.193,7.705-4.796c0.797-0.495,1.586-1.004,2.379-1.507h0.174
	c0.052,0.022,0.102,0.053,0.154,0.065c0.69,0.168,1.381,0.334,2.073,0.499c5.187,1.234,10.375,2.472,15.562,3.703
	c0.388,0.094,0.683,0.292,0.892,0.63C458.136,248.083,458.275,248.278,458.41,248.476 M425.47,252.958
	c-0.007,0.092-0.021,0.146-0.018,0.201c0.08,1.229,0.162,2.46,0.244,3.689c0.129,1.912,0.256,3.824,0.383,5.737
	c0.104,1.585,0.212,3.17,0.307,4.757c0.015,0.259,0.107,0.376,0.359,0.456c3.697,1.185,7.389,2.392,11.086,3.571
	c2.15,0.687,4.312,1.343,6.475,1.994c0.415,0.125,0.853,0.176,1.31,0.268c0-0.153,0.002-0.239,0-0.324
	c-0.051-4.663-0.104-9.325-0.148-13.987c-0.002-0.208-0.063-0.298-0.268-0.357c-2.045-0.614-4.084-1.241-6.125-1.862
	c-0.41-0.126-0.821-0.246-1.277-0.382v0.349c0,0.617,0.007,1.234-0.008,1.851c-0.002,0.12-0.08,0.236-0.125,0.355
	c-0.096-0.079-0.223-0.14-0.281-0.239c-0.332-0.562-0.647-1.132-0.985-1.729c-0.268,0.298-0.516,0.577-0.768,0.854
	c-0.276,0.303-0.349,0.293-0.534-0.062c-0.184-0.346-0.369-0.688-0.567-1.061c-0.351,0.32-0.67,0.624-1.002,0.912
	c-0.07,0.062-0.201,0.121-0.271,0.096c-0.061-0.022-0.104-0.168-0.104-0.26c-0.009-0.741-0.012-1.482,0-2.226
	c0.002-0.195-0.052-0.28-0.25-0.339c-1.896-0.568-3.787-1.15-5.682-1.729C426.642,253.317,426.066,253.141,425.47,252.958
	 M446.396,273.6c0.125-0.103,0.176-0.141,0.221-0.185c3.472-3.283,6.94-6.568,10.404-9.859c0.1-0.094,0.18-0.259,0.184-0.394
	c0.023-0.74,0.015-1.482,0.027-2.224c0.063-3.757,0.133-7.514,0.198-11.271c0.001-0.067-0.015-0.137-0.026-0.237
	c-0.101,0.085-0.168,0.141-0.231,0.196c-1.439,1.221-2.878,2.441-4.316,3.662c-2.123,1.802-4.242,3.604-6.371,5.396
	c-0.175,0.146-0.23,0.294-0.229,0.515c0.051,4.432,0.095,8.861,0.141,13.294C446.4,272.837,446.396,273.179,446.396,273.6
	 M438.189,255.996c0.325,0.103,0.596,0.188,0.868,0.271c2.142,0.653,4.284,1.309,6.429,1.953c0.106,0.032,0.276,0.017,0.356-0.05
	c1.263-1.058,2.517-2.123,3.771-3.188c1.859-1.574,3.719-3.149,5.576-4.726c0.729-0.616,1.451-1.235,2.242-1.908
	c-0.197-0.127-0.344-0.283-0.519-0.326c-2.279-0.554-4.563-1.088-6.844-1.639c-0.213-0.053-0.355-0.013-0.518,0.124
	c-1.074,0.905-2.156,1.803-3.236,2.704c-2.279,1.897-4.558,3.798-6.836,5.696C439.064,255.258,438.648,255.61,438.189,255.996
	 M445.549,245.332c-0.057-0.022-0.079-0.035-0.104-0.041c-1.98-0.476-3.963-0.951-5.944-1.417c-0.104-0.023-0.246,0.02-0.345,0.077
	c-0.625,0.378-1.242,0.77-1.86,1.154c-3.445,2.145-6.892,4.287-10.334,6.432c-0.353,0.22-0.701,0.442-1.073,0.68
	c0.066,0.044,0.088,0.063,0.114,0.072c2.38,0.726,4.76,1.451,7.143,2.168c0.094,0.026,0.241-0.023,0.326-0.088
	c3.424-2.555,6.844-5.112,10.264-7.674C444.335,246.248,444.93,245.797,445.549,245.332"/>
<path fill="#595859" d="M442.803,269.352c-1.435-0.416-2.824-0.816-4.216-1.221c-3.243-0.941-6.487-1.885-9.733-2.819
	c-0.196-0.057-0.275-0.134-0.297-0.343c-0.071-0.737-0.168-1.474-0.254-2.21c-0.014-0.104-0.017-0.207-0.023-0.337
	c0.121,0.028,0.213,0.045,0.303,0.07c4.584,1.269,9.165,2.542,13.75,3.805c0.224,0.062,0.314,0.154,0.325,0.386
	C442.696,267.557,442.752,268.431,442.803,269.352 M440.146,267.723c-0.131-0.184-0.24-0.34-0.351-0.495l0.089-0.001
	c0.022-0.159,0.106-0.342,0.062-0.478c-0.144-0.413-0.562-0.347-0.912-0.502c0.032,0.432,0.051,0.805,0.097,1.175
	c0.011,0.08,0.124,0.146,0.189,0.219c0.029-0.017,0.058-0.033,0.085-0.051v-0.403c0.165,0.101,0.255,0.234,0.368,0.345
	C439.866,267.622,439.88,267.874,440.146,267.723 M434.895,265.073c-0.028,0.015-0.056,0.026-0.082,0.041
	c0.019,0.257,0.039,0.513,0.062,0.814c-0.339-0.337-0.358-0.842-0.843-1.095c0.04,0.452,0.065,0.814,0.11,1.176
	c0.008,0.067,0.101,0.123,0.154,0.185c0.021-0.018,0.042-0.033,0.062-0.052c-0.013-0.218-0.023-0.437-0.035-0.654
	c0.194,0.251,0.337,0.512,0.499,0.759c0.04,0.06,0.142,0.077,0.214,0.115c0.03-0.073,0.089-0.148,0.086-0.223
	c-0.013-0.288-0.035-0.577-0.076-0.861C435.037,265.204,434.947,265.14,434.895,265.073 M431.355,264.679
	c0.019-0.005,0.037-0.01,0.054-0.015c0.147,0.245,0.286,0.495,0.444,0.731c0.039,0.06,0.141,0.075,0.213,0.111
	c0.027-0.066,0.078-0.136,0.074-0.201c-0.021-0.298-0.049-0.596-0.094-0.891c-0.011-0.066-0.1-0.12-0.15-0.18
	c-0.024,0.013-0.049,0.023-0.072,0.036c0.023,0.265,0.047,0.527,0.074,0.823c-0.332-0.343-0.363-0.851-0.846-1.115
	c0.047,0.455,0.075,0.819,0.127,1.182c0.01,0.068,0.104,0.127,0.162,0.188c0.021-0.017,0.045-0.032,0.066-0.049
	C431.391,265.095,431.374,264.887,431.355,264.679 M438.096,266.911c0.287,0.03,0.545,0.073,0.604,0.423
	c0.011,0.059,0.125,0.099,0.191,0.148c0.021-0.021,0.041-0.044,0.062-0.064c-0.104-0.309-0.204-0.615-0.309-0.922
	c-0.028-0.082-0.041-0.188-0.099-0.236c-0.114-0.101-0.25-0.208-0.392-0.234c-0.052-0.011-0.171,0.188-0.216,0.309
	c-0.068,0.188-0.092,0.392-0.148,0.585c-0.054,0.179-0.003,0.272,0.189,0.291C438.02,267.108,438.057,267.011,438.096,266.911
	 M441.271,267.924c0.058,0.124,0.07,0.22,0.119,0.245c0.16,0.08,0.332,0.163,0.506,0.188c0.115,0.018,0.318-0.033,0.347-0.106
	c0.046-0.12,0.028-0.318-0.047-0.418c-0.104-0.137-0.292-0.206-0.437-0.315c-0.084-0.062-0.154-0.146-0.23-0.224l0.066-0.104
	c0.189,0.059,0.381,0.115,0.651,0.197c-0.069-0.118-0.093-0.212-0.149-0.241c-0.134-0.07-0.281-0.143-0.428-0.154
	c-0.115-0.012-0.311,0.034-0.342,0.108c-0.045,0.108-0.009,0.284,0.059,0.396c0.062,0.104,0.205,0.163,0.314,0.236
	c0.08,0.054,0.179,0.085,0.243,0.15c0.043,0.045,0.044,0.132,0.062,0.201c-0.061,0.016-0.129,0.059-0.182,0.044
	C441.665,268.082,441.509,268.013,441.271,267.924 M429.678,263.858c0.006-0.217-0.233-0.373-0.527-0.373
	c-0.205-0.001-0.323,0.1-0.356,0.301c-0.081,0.482,0.262,0.968,0.738,1.044c0.333,0.053,0.374-0.011,0.356-0.346
	c-0.02-0.347-0.25-0.349-0.508-0.351c0.035,0.086,0.112,0.132,0.155,0.2c0.046,0.074,0.06,0.168,0.094,0.272
	c-0.388-0.043-0.558-0.191-0.584-0.505c-0.011-0.113,0.007-0.279,0.077-0.338c0.071-0.057,0.229-0.016,0.348,0.001
	C429.539,263.776,429.604,263.824,429.678,263.858 M432.38,264.358c-0.033,0.021-0.064,0.039-0.099,0.06
	c0.019,0.199,0.033,0.398,0.057,0.597c0.011,0.096,0.025,0.191,0.05,0.284c0.076,0.292,0.349,0.51,0.646,0.528
	c0.188,0.011,0.311-0.066,0.306-0.258c-0.008-0.27-0.03-0.538-0.069-0.805c-0.008-0.066-0.104-0.122-0.159-0.183
	c-0.044,0.298-0.015,0.544-0.003,0.791c0.011,0.204-0.129,0.292-0.293,0.174c-0.09-0.065-0.164-0.189-0.188-0.301
	c-0.047-0.204-0.036-0.423-0.079-0.627C432.527,264.524,432.438,264.445,432.38,264.358 M435.305,265.19
	c0.035,0.444,0.062,0.814,0.102,1.186c0.005,0.054,0.059,0.133,0.105,0.148c0.239,0.081,0.483,0.146,0.754,0.225
	c-0.009-0.313-0.237-0.271-0.375-0.306c-0.254-0.063-0.316-0.193-0.24-0.432c0.145,0.03,0.271,0.057,0.396,0.083
	c0.017-0.032,0.031-0.063,0.048-0.096c-0.103-0.06-0.199-0.138-0.311-0.171c-0.161-0.051-0.259-0.113-0.179-0.312
	c0.187,0.044,0.367,0.086,0.547,0.129c0.012-0.031,0.023-0.062,0.035-0.096C435.98,265.302,435.635,265.358,435.305,265.19
	 M437.052,266.542c0.092,0.017,0.155,0.032,0.221,0.042c0.322,0.048,0.477-0.103,0.377-0.408c-0.047-0.14-0.17-0.287-0.299-0.359
	c-0.177-0.101-0.394-0.134-0.633-0.208c0.038,0.427,0.064,0.809,0.113,1.188c0.009,0.064,0.108,0.118,0.221,0.23V266.542
	L437.052,266.542z M430.016,263.743c0.041,0.387,0.073,0.749,0.117,1.106c0.008,0.06,0.049,0.145,0.094,0.159
	c0.248,0.083,0.5,0.149,0.75,0.222c0.017-0.045,0.033-0.088,0.051-0.131c-0.139-0.059-0.273-0.139-0.42-0.171
	c-0.23-0.052-0.332-0.165-0.264-0.425c0.139,0.031,0.271,0.061,0.41,0.091c0.067-0.252-0.136-0.228-0.251-0.266
	c-0.146-0.047-0.28-0.081-0.207-0.312c0.175,0.042,0.345,0.083,0.522,0.126C430.788,263.911,430.768,263.9,430.016,263.743
	 M440.77,266.978c0.141,0.023,0.23,0.038,0.326,0.056c-0.019-0.216-0.498-0.413-1.015-0.415c0.058,0.076,0.091,0.172,0.136,0.177
	c0.262,0.028,0.279,0.209,0.286,0.411c0.005,0.182,0.03,0.362,0.031,0.545c0.001,0.2,0.07,0.303,0.303,0.261
	C440.814,267.673,440.794,267.341,440.77,266.978 M433.869,266.027c-0.014-0.193-0.024-0.383-0.041-0.569
	c-0.016-0.191-0.022-0.385-0.062-0.57c-0.016-0.065-0.111-0.114-0.194-0.194C433.505,265.349,433.641,265.975,433.869,266.027"/>
<path fill="#595859" d="M430.236,262.054c-0.883-0.078-1.684-0.524-2.201-1.415c-0.2-0.347-0.28-0.735-0.037-1.095
	c0.249-0.364,0.638-0.436,1.054-0.386c1.019,0.12,1.802,0.605,2.228,1.553C431.611,261.453,431.188,262.045,430.236,262.054
	 M430.891,260.345c-0.186,0.392-0.512,0.343-0.791,0.388c-0.035,0.366-0.069,0.725-0.104,1.085c0.393,0.094,0.783-0.018,0.977-0.309
	C431.219,261.129,431.098,260.765,430.891,260.345 M428.197,259.759c-0.295,0.603,0.457,1.747,1.271,1.902
	c-0.09-0.335-0.174-0.688-0.285-1.033c-0.029-0.095-0.122-0.179-0.204-0.247C428.725,260.17,428.464,259.97,428.197,259.759
	 M429.696,259.45c-0.011,0.022-0.021,0.046-0.032,0.067c0.095,0.22,0.181,0.443,0.286,0.658c0.034,0.067,0.129,0.163,0.184,0.154
	c0.131-0.021,0.263-0.082,0.373-0.158c0.021-0.016-0.035-0.212-0.102-0.262C430.18,259.742,429.934,259.602,429.696,259.45
	 M429.111,260.127c0.076-0.279,0.136-0.503,0.209-0.771c-0.186,0-0.354-0.018-0.521,0.004c-0.274,0.036-0.345,0.22-0.152,0.413
	C428.776,259.906,428.942,260.001,429.111,260.127 M429.36,260.58c0.073,0.312,0.078,0.607,0.358,0.794
	C430.037,260.916,429.934,260.675,429.36,260.58 M429.753,260.315c0.021-0.023,0.043-0.048,0.064-0.071
	c-0.09-0.166-0.181-0.333-0.271-0.5c-0.037,0.007-0.076,0.014-0.115,0.021c-0.026,0.13-0.116,0.306-0.064,0.378
	C429.438,260.24,429.617,260.261,429.753,260.315"/>
<path fill="#595859" d="M438.783,263.174c-0.006,0.562-0.446,0.86-0.967,0.655c-0.598-0.236-1.025-1.04-0.865-1.629
	c0.107-0.397,0.412-0.571,0.819-0.467C438.32,261.876,438.791,262.546,438.783,263.174 M438.363,263.069
	c-0.059-0.405-0.147-0.714-0.47-0.889c-0.239-0.13-0.483-0.025-0.526,0.239c-0.055,0.337,0.006,0.667,0.281,0.887
	c0.122,0.099,0.35,0.165,0.485,0.118C438.253,263.384,438.308,263.165,438.363,263.069"/>
<path fill="#595859" d="M435.176,262.228c-0.007,0.553-0.44,0.839-0.946,0.623c-0.535-0.229-0.934-0.928-0.855-1.506
	c0.062-0.462,0.408-0.682,0.851-0.541C434.742,260.969,435.182,261.626,435.176,262.228 M434.805,262.101
	c-0.044-0.331-0.223-0.69-0.447-0.833c-0.277-0.178-0.532-0.074-0.566,0.246c-0.033,0.307,0.029,0.607,0.271,0.812
	c0.117,0.097,0.324,0.178,0.453,0.14C434.637,262.43,434.711,262.229,434.805,262.101"/>
<path fill="#595859" d="M440.732,264.565c-0.127-0.032-0.26-0.067-0.418-0.109c0.187-0.582,0.355-1.13,0.536-1.676
	c0.019-0.056,0.118-0.138,0.15-0.127c0.16,0.06,0.398,0.107,0.451,0.229c0.291,0.668,0.537,1.354,0.811,2.062
	c-0.272,0.007-0.465-0.034-0.54-0.319c-0.053-0.2-0.605-0.493-0.773-0.401C440.859,264.269,440.822,264.417,440.732,264.565
	 M441.484,263.961c-0.104-0.286-0.184-0.5-0.289-0.786c-0.078,0.256-0.135,0.439-0.199,0.652
	C441.158,263.872,441.29,263.909,441.484,263.961"/>
<path fill="#595859" d="M436.831,261.575c-0.257,0.569-0.748,1.052-0.492,1.753c-0.283,0.013-0.457-0.038-0.438-0.319
	c0.031-0.477-0.242-0.839-0.451-1.225c-0.113-0.21-0.229-0.42-0.357-0.659c0.271,0,0.463,0.058,0.568,0.309
	c0.098,0.228,0.225,0.44,0.365,0.715c0.075-0.156,0.127-0.265,0.178-0.374C436.385,261.386,436.385,261.386,436.831,261.575"/>
<path fill="#595859" d="M440.402,262.853c-0.262-0.052-0.418-0.083-0.619-0.122c0.033,0.532,0.063,1.044,0.096,1.558
	c-0.362,0.01-0.41-0.033-0.43-0.345c-0.021-0.363-0.06-0.729-0.064-1.096c-0.004-0.207-0.097-0.299-0.284-0.318
	c-0.273-0.025-0.361-0.17-0.275-0.462c0.455,0.119,0.912,0.224,1.354,0.37C440.271,262.468,440.307,262.666,440.402,262.853"/>
<path fill="#595859" d="M433.285,260.984c-0.233-0.055-0.374-0.087-0.557-0.13c0.044,0.525,0.087,1.033,0.13,1.542
	c-0.292,0.014-0.408-0.092-0.414-0.37c-0.009-0.374-0.056-0.748-0.116-1.117c-0.014-0.087-0.139-0.2-0.228-0.219
	c-0.246-0.046-0.354-0.162-0.306-0.467c0.441,0.117,0.885,0.222,1.315,0.363C433.188,260.613,433.21,260.801,433.285,260.984"/>
<path fill="#595859" d="M456.607,257.142c0,0.857,0.006,1.705-0.008,2.551c-0.002,0.096-0.086,0.211-0.164,0.279
	c-1.842,1.582-3.688,3.156-5.531,4.734c-1.104,0.944-2.206,1.895-3.311,2.842c-0.093,0.079-0.189,0.156-0.314,0.261
	c-0.016-0.102-0.032-0.161-0.033-0.222c-0.016-0.801-0.038-1.601-0.036-2.399c0-0.122,0.067-0.284,0.161-0.36
	c3.021-2.527,6.05-5.048,9.076-7.567C456.505,257.212,456.566,257.172,456.607,257.142 M451.271,263.702
	c0.314-0.267,0.112-0.578,0.223-0.819c0.101,0.123,0.193,0.236,0.316,0.387c0.277-0.468,0.129-0.92,0.127-1.358
	c-0.269,0.239-0.047,0.589-0.203,0.893c-0.107-0.186-0.198-0.338-0.324-0.553C451.176,262.737,451.332,263.19,451.271,263.702
	 M447.943,265.814c0.072,0.13,0.171,0.238,0.147,0.279c-0.069,0.128-0.185,0.229-0.306,0.369c-0.202-0.502-0.087-0.87,0.282-1.127
	c0.076-0.054,0.125-0.144,0.238-0.274c-0.546,0.076-0.937,0.886-0.774,1.444c0.061,0.207,0.202,0.197,0.358,0.087
	c0.373-0.267,0.471-0.532,0.355-1.053C448.133,265.643,448.031,265.735,447.943,265.814 M449.775,265.04
	c0.234-0.516,0.111-0.954,0.131-1.383c-0.04-0.004-0.079-0.006-0.119-0.009v0.455v0.467c-0.024,0.005-0.051,0.01-0.075,0.014
	c-0.109-0.174-0.22-0.349-0.328-0.522c-0.186,0.146-0.24,0.934-0.027,1.316c0.017-0.266,0.033-0.529,0.054-0.821
	C449.531,264.717,449.626,264.843,449.775,265.04 M453.698,261.581c0.151-0.238,0.126-0.575,0.485-0.673
	c0.031,0.062,0.064,0.128,0.1,0.192c0.031-0.009,0.062-0.019,0.096-0.028c-0.061-0.342-0.118-0.684-0.178-1.025
	c-0.034-0.004-0.067-0.008-0.102-0.012C453.686,260.467,453.794,261.056,453.698,261.581 M455.039,259.408
	c-0.022-0.021-0.046-0.046-0.069-0.066c-0.145,0.136-0.388,0.255-0.414,0.41c-0.062,0.365-0.021,0.747-0.021,1.123
	c0.023,0.003,0.048,0.007,0.072,0.01c0.031-0.189,0.062-0.377,0.096-0.593c0.122,0.086,0.205,0.144,0.296,0.208
	C455.001,260.479,455.039,259.408,455.039,259.408 M448.984,264.324c-0.174,0.184-0.452,0.342-0.498,0.552
	c-0.084,0.37-0.022,0.771-0.022,1.159c0.021,0.008,0.045,0.018,0.067,0.024c0.152-0.238,0.496-0.307,0.587-0.712
	c-0.192,0.144-0.319,0.236-0.443,0.329c-0.229-0.371,0.303-0.444,0.277-0.772c-0.123,0.083-0.212,0.146-0.312,0.214
	C448.527,264.712,449.064,264.706,448.984,264.324 M452.635,262.355c-0.104,0.074-0.207,0.147-0.311,0.224
	c-0.027-0.022-0.057-0.046-0.085-0.068c0.12-0.208,0.239-0.415,0.399-0.691c-0.16,0.09-0.238,0.132-0.315,0.175l-0.068-0.064
	c0.152-0.195,0.307-0.391,0.458-0.585c-0.03-0.026-0.063-0.053-0.096-0.078c-0.166,0.188-0.426,0.353-0.477,0.565
	c-0.08,0.343-0.021,0.718-0.021,1.142C452.357,262.77,452.598,262.661,452.635,262.355 M450.389,264.246
	c-0.041-0.003-0.08-0.007-0.119-0.011v-0.878l-0.101-0.012c-0.032,0.079-0.088,0.157-0.091,0.238
	c-0.011,0.239-0.007,0.479,0.008,0.721c0.005,0.077,0.042,0.193,0.096,0.217c0.057,0.022,0.162-0.03,0.228-0.077
	c0.354-0.256,0.514-1.104,0.28-1.528C450.523,263.353,450.838,263.899,450.389,264.246 M453.059,262.122
	c0.019,0.004,0.039,0.007,0.058,0.011c0.022-0.045,0.065-0.094,0.062-0.137c-0.023-0.237,0.083-0.399,0.23-0.584
	c0.136-0.166,0.177-0.413,0.231-0.632c0.01-0.038-0.146-0.167-0.154-0.16c-0.149,0.114-0.387,0.229-0.409,0.372
	C453.02,261.361,453.059,261.745,453.059,262.122 M456.404,258.255c-0.471,0.168-0.6,0.428-0.514,0.875
	c0.104-0.021,0.209-0.037,0.313-0.058c0.021,0.025,0.041,0.051,0.062,0.075c-0.16,0.192-0.322,0.383-0.481,0.574
	c0.483-0.14,0.688-0.556,0.526-0.944c-0.097,0.023-0.194,0.047-0.293,0.069c-0.02-0.021-0.037-0.044-0.057-0.064
	C456.109,258.607,456.258,258.431,456.404,258.255 M455.723,258.689c-0.218,0.195-0.412,0.371-0.607,0.547
	c0.017,0.023,0.033,0.048,0.05,0.071c0.057-0.008,0.112-0.016,0.188-0.024v0.907c0.026,0.006,0.053,0.014,0.078,0.02
	c0.034-0.113,0.086-0.228,0.1-0.344c0.049-0.355-0.09-0.748,0.215-1.055C455.756,258.8,455.734,258.759,455.723,258.689
	 M451.061,262.651h-0.062v1.26h0.062V262.651z"/>
<path fill="#595859" d="M449.659,260.782c-0.146,0.974-0.64,1.883-1.599,2.502c-0.209,0.135-0.459,0.235-0.707,0.093
	c-0.279-0.164-0.377-0.44-0.328-0.745c0.177-1.094,0.676-2.003,1.639-2.591C449.238,259.689,449.665,259.965,449.659,260.782
	 M448.003,262.01h-0.719c0,0.174-0.015,0.383,0.004,0.589c0.02,0.216,0.021,0.449,0.291,0.539c0.261,0.087,0.459-0.016,0.618-0.135
	C448.127,262.642,448.062,262.317,448.003,262.01 M448.622,262.613c0.479-0.37,1.063-1.716,0.75-2.287
	C448.943,261.023,448.497,261.723,448.622,262.613 M448.214,260.633c-0.019-0.017-0.036-0.035-0.055-0.052
	c-0.171,0.235-0.356,0.465-0.499,0.718c-0.041,0.072,0.029,0.302,0.076,0.31c0.146,0.028,0.296-0.005,0.322-0.223
	C448.09,261.133,448.16,260.884,448.214,260.633 M448.695,261.015c0.093-0.125,0.166-0.191,0.201-0.277
	c0.068-0.174,0.114-0.355,0.17-0.533c-0.199,0.029-0.398,0.062-0.606,0.095C448.55,260.57,448.613,260.764,448.695,261.015
	 M448.586,261.637c-0.449,0.194-0.493,0.398-0.182,0.826C448.466,262.187,448.525,261.913,448.586,261.637 M448.182,261.407
	c0.412-0.247,0.436-0.354,0.153-0.65C448.283,260.976,448.241,261.159,448.182,261.407"/>
<path fill="#595859" d="M452.275,258.525c-0.072,0.527-0.172,1.021-0.522,1.402c-0.104,0.112-0.296,0.206-0.439,0.196
	c-0.088-0.006-0.21-0.221-0.23-0.354c-0.105-0.67,0.068-1.273,0.521-1.778c0.242-0.271,0.479-0.208,0.599,0.137
	C452.248,258.261,452.255,258.41,452.275,258.525 M451.287,259.161c0.017,0.007,0.031,0.014,0.046,0.021
	c0.008,0.104-0.003,0.215,0.028,0.312c0.022,0.068,0.092,0.149,0.158,0.173c0.049,0.016,0.153-0.038,0.188-0.091
	c0.221-0.329,0.335-0.689,0.235-1.088c-0.02-0.07-0.095-0.17-0.156-0.18c-0.061-0.01-0.172,0.061-0.201,0.122
	C451.474,258.669,451.385,258.917,451.287,259.161"/>
<path fill="#595859" d="M453.396,257.586c0.043-0.502,0.127-0.968,0.434-1.345c0.107-0.135,0.307-0.193,0.465-0.287
	c0.091,0.157,0.243,0.311,0.263,0.478c0.065,0.555-0.107,1.068-0.434,1.513c-0.099,0.137-0.302,0.193-0.454,0.286
	c-0.085-0.146-0.178-0.292-0.249-0.443C453.389,257.72,453.4,257.635,453.396,257.586 M453.814,257.795
	c0.369-0.163,0.633-0.981,0.426-1.287c-0.096-0.146-0.199-0.11-0.305,0.003C453.678,256.789,453.607,257.437,453.814,257.795"/>
<path fill="#595859" d="M455.437,256.794c0.151-0.703,0.294-1.408,0.465-2.106c0.032-0.134,0.181-0.24,0.304-0.394
	c0.421,1.617,0.421,1.617,0.125,1.812c-0.039-0.083-0.077-0.163-0.12-0.253c-0.255,0.14-0.438,0.306-0.483,0.605
	c-0.021,0.134-0.126,0.254-0.192,0.381C455.501,256.826,455.469,256.81,455.437,256.794 M456.014,255.037
	c-0.032,0.2-0.062,0.402-0.101,0.633C456.31,255.499,456.113,255.25,456.014,255.037"/>
<path fill="#595859" d="M453.402,256.608c-0.092,0.342-0.18,0.624-0.24,0.913c-0.084,0.401-0.137,0.81-0.221,1.21
	c-0.024,0.128-0.109,0.244-0.166,0.365c-0.033-0.013-0.063-0.024-0.097-0.036c0-0.142,0.029-0.291-0.006-0.422
	c-0.08-0.291-0.172-0.583-0.299-0.857c-0.113-0.249-0.057-0.39,0.203-0.488c0.072,0.171,0.146,0.343,0.234,0.548
	C453.041,257.425,452.904,256.898,453.402,256.608"/>
<path fill="#595859" d="M450.369,260.955v-1.479c-0.127,0.071-0.22,0.123-0.368,0.208c0.023-0.661,0.646-0.724,0.932-1.142
	c0.088,0.256,0.04,0.394-0.114,0.537c-0.091,0.084-0.159,0.232-0.166,0.357c-0.021,0.384,0.006,0.77-0.014,1.15
	c-0.009,0.138-0.1,0.271-0.153,0.403C450.446,260.98,450.407,260.967,450.369,260.955"/>
<path fill="#595859" d="M454.927,255.756c-0.102,0.074-0.17,0.124-0.238,0.175c-0.135-0.32,0.031-0.521,0.906-0.979
	c-0.062,0.136-0.09,0.313-0.195,0.397c-0.158,0.126-0.192,0.259-0.193,0.441c-0.002,0.374-0.013,0.749-0.045,1.121
	c-0.01,0.121-0.095,0.234-0.146,0.354c-0.029-0.01-0.06-0.019-0.088-0.028L454.927,255.756L454.927,255.756z"/>
<path fill="#595859" d="M439.346,266.571c0.213,0.04,0.387,0.073,0.373,0.306c-0.004,0.039-0.125,0.104-0.188,0.1
	C439.287,266.952,439.35,266.764,439.346,266.571"/>
<path fill="#595859" d="M438.292,266.18c0.081,0.222,0.141,0.377,0.198,0.54C438.102,266.738,438.066,266.66,438.292,266.18"/>
<path fill="#595859" d="M436.996,265.922c0.227,0.019,0.409,0.058,0.416,0.309c0.002,0.041-0.108,0.123-0.168,0.122
	C436.949,266.347,437.005,266.129,436.996,265.922"/>
<path fill="#595859" d="M453.52,260.915c-0.07,0.152-0.142,0.306-0.24,0.52c-0.127-0.372-0.113-0.411,0.15-0.561
	C453.46,260.887,453.49,260.901,453.52,260.915"/>
</svg>
