<?xml version="1.0" encoding="utf-8"?>
<!-- Generator: Adobe Illustrator 16.0.0, SVG Export Plug-In . SVG Version: 6.00 Build 0)  -->
<!DOCTYPE svg PUBLIC "-//W3C//DTD SVG 1.1//EN" "http://www.w3.org/Graphics/SVG/1.1/DTD/svg11.dtd">
<svg version="1.1" id="Layer_1" xmlns="http://www.w3.org/2000/svg" xmlns:xlink="http://www.w3.org/1999/xlink" x="0px" y="0px"
	 width="23.918px" height="31.521px" viewBox="429.399 242.868 23.918 31.521"
	 enable-background="new 429.399 242.868 23.918 31.521" xml:space="preserve">
<path fill="#595859" d="M445.881,274.374h-9.439c-0.259,0-0.468-0.21-0.468-0.471c0-0.259,0.209-0.469,0.468-0.469h9.439
	c3.521,0,6.5-6.782,6.5-14.811c0-8.029-2.979-14.812-6.5-14.812h-9.318c-0.259,0-0.469-0.21-0.469-0.469
	c0-0.258,0.21-0.468,0.469-0.468h9.318c4.171,0,7.437,6.917,7.437,15.748S450.052,274.374,445.881,274.374"/>
<path fill="#595859" d="M441.214,273.904c-0.058,0-0.113-0.021-0.153-0.063c-0.071-0.078-0.062-0.196,0.021-0.263
	c2.687-2.141,4.491-8.147,4.491-14.952c0-6.806-1.806-12.813-4.491-14.951c-0.084-0.067-0.094-0.186-0.021-0.263
	c0.073-0.079,0.2-0.088,0.284-0.021c2.771,2.206,4.632,8.328,4.632,15.235c0,6.906-1.861,13.028-4.632,15.233
	C441.306,273.889,441.26,273.904,441.214,273.904"/>
<path fill="#595859" d="M441.214,274.256c-0.156,0-0.307-0.065-0.411-0.179c-0.102-0.108-0.152-0.256-0.141-0.4
	c0.012-0.147,0.085-0.284,0.202-0.377c2.605-2.074,4.356-7.973,4.356-14.676c0-6.702-1.751-12.602-4.357-14.678
	c-0.117-0.093-0.189-0.229-0.201-0.377c-0.012-0.146,0.04-0.292,0.141-0.398c0.19-0.205,0.541-0.231,0.761-0.059
	c2.851,2.271,4.765,8.504,4.765,15.512c0,7.009-1.914,13.241-4.765,15.51C441.466,274.212,441.341,274.256,441.214,274.256"/>
<path fill="#595859" d="M443.396,273.904c-0.061,0-0.119-0.023-0.158-0.07c-0.068-0.08-0.055-0.198,0.034-0.264
	c2.936-2.138,4.908-8.144,4.908-14.944c0-6.802-1.974-12.809-4.908-14.946c-0.087-0.063-0.104-0.181-0.034-0.262
	c0.067-0.081,0.195-0.098,0.282-0.032c3.028,2.206,5.062,8.33,5.062,15.24s-2.035,13.035-5.062,15.239
	C443.483,273.891,443.439,273.904,443.396,273.904"/>
<path fill="#595859" d="M443.396,274.256c-0.167,0-0.323-0.072-0.429-0.197c-0.095-0.11-0.14-0.258-0.122-0.403
	c0.019-0.146,0.098-0.28,0.219-0.368c2.85-2.076,4.765-7.969,4.765-14.662c0-6.694-1.914-12.587-4.764-14.662
	c-0.121-0.089-0.2-0.223-0.219-0.368c-0.018-0.146,0.026-0.292,0.122-0.405c0.183-0.215,0.528-0.256,0.759-0.088
	c3.114,2.269,5.208,8.507,5.208,15.523c0,7.016-2.094,13.256-5.208,15.523C443.633,274.218,443.514,274.256,443.396,274.256"/>
<path fill="#595859" d="M445.56,273.904c-0.062,0-0.123-0.024-0.163-0.075c-0.064-0.083-0.046-0.199,0.044-0.262
	c3.15-2.139,5.267-8.144,5.267-14.941s-2.114-12.804-5.267-14.942c-0.089-0.061-0.108-0.178-0.043-0.261s0.191-0.104,0.281-0.04
	c3.249,2.205,5.432,8.331,5.432,15.243c0,6.913-2.183,13.038-5.433,15.244C445.643,273.892,445.601,273.904,445.56,273.904"/>
<path fill="#595859" d="M445.56,274.256c-0.173,0-0.333-0.077-0.438-0.21c-0.092-0.115-0.131-0.266-0.107-0.408
	c0.021-0.146,0.104-0.278,0.229-0.362c3.06-2.075,5.113-7.964,5.113-14.65c0-6.688-2.055-12.575-5.113-14.651
	c-0.124-0.084-0.208-0.215-0.229-0.361c-0.023-0.144,0.017-0.293,0.106-0.407c0.177-0.223,0.521-0.273,0.757-0.113
	c3.341,2.268,5.586,8.511,5.586,15.534c0,7.022-2.245,13.267-5.588,15.534C445.783,274.222,445.675,274.256,445.56,274.256"/>
<path fill="#595859" d="M443.77,258.628c0-8.689-3.223-15.76-7.185-15.76c-3.963,0-7.187,7.069-7.187,15.76
	s3.224,15.762,7.187,15.762C440.548,274.39,443.77,267.32,443.77,258.628 M436.339,270.443c-2.971,0-5.387-5.3-5.387-11.813
	c0-6.515,2.416-11.813,5.387-11.813c2.97,0,5.386,5.301,5.386,11.813C441.724,265.143,439.308,270.443,436.339,270.443"/>
<path fill="#595859" d="M437.675,258.651c0,1.334-0.493,2.415-1.103,2.415c-0.606,0-1.101-1.081-1.101-2.415
	s0.493-2.415,1.101-2.415C437.181,256.236,437.675,257.317,437.675,258.651"/>
<path fill="#595859" d="M431.619,260.798c0.221,2.33,0.791,4.378,1.586,5.868l1.47-5.868H431.619z"/>
<path fill="#595859" d="M437.738,248.563c-0.444-0.299-0.919-0.46-1.408-0.46s-0.963,0.161-1.408,0.46l1.408,5.624L437.738,248.563z
	"/>
<path fill="#595859" d="M441.04,256.502c-0.22-2.33-0.791-4.377-1.586-5.868l-1.47,5.868H441.04z"/>
<path fill="#595859" d="M433.205,250.634c-0.795,1.491-1.365,3.538-1.586,5.868h3.056L433.205,250.634z"/>
<path fill="#595859" d="M434.922,268.739c0.444,0.3,0.918,0.461,1.407,0.461c0.49,0,0.963-0.161,1.409-0.461l-1.409-5.623
	L434.922,268.739z"/>
<path fill="#595859" d="M441.04,260.798h-3.056l1.47,5.868C440.249,265.176,440.82,263.128,441.04,260.798"/>
</svg>
