<?xml version="1.0" encoding="utf-8"?>
<!-- Generator: Adobe Illustrator 16.0.0, SVG Export Plug-In . SVG Version: 6.00 Build 0)  -->
<!DOCTYPE svg PUBLIC "-//W3C//DTD SVG 1.1//EN" "http://www.w3.org/Graphics/SVG/1.1/DTD/svg11.dtd">
<svg version="1.1" id="Layer_1" xmlns="http://www.w3.org/2000/svg" xmlns:xlink="http://www.w3.org/1999/xlink" x="0px" y="0px"
	 width="33.188px" height="31.01px" viewBox="404.316 213.194 33.188 31.01" enable-background="new 404.316 213.194 33.188 31.01"
	 xml:space="preserve">
<path fill="#595859" d="M411.312,244.203c-0.145,0-0.289-0.028-0.428-0.085c-0.416-0.173-0.688-0.579-0.688-1.029v-3.772
	c-3.271-0.166-5.881-2.879-5.881-6.19v-8.959c0-2.865,1.941-5.316,4.685-6.009c0.728-2.861,3.221-4.965,5.979-4.965h16.292
	c3.418,0,6.198,2.781,6.198,6.199l0.035,8.99c0,2.919-1.896,5.301-4.658,5.935c-0.649,2.482-3.184,5.008-6.072,5.008H416.65
	l-4.551,4.552C411.886,244.089,411.602,244.203,411.312,244.203 M410.517,220.197c-0.248,0-0.397,0-0.591,0.042
	c-0.019,0.005-0.037,0.009-0.056,0.012c-1.927,0.326-3.325,1.973-3.325,3.917v8.959c0,2.189,1.78,3.971,3.972,3.971h0.481
	c0.787,0,1.427,0.639,1.427,1.426v1.876l2.872-2.872c0.269-0.269,0.652-0.43,1.029-0.43h10.446c1.675,0,4.005-2.001,4.005-3.971
	v-8.959c0-2.189-1.781-3.971-3.97-3.971H410.517z M411.413,217.967h15.396c3.418,0,6.198,2.781,6.198,6.199v7.771
	c1.56-0.646,2.269-2.161,2.269-3.551l-0.034-8.989c0-2.193-1.78-3.975-3.971-3.975h-16.292
	C413.467,215.422,412.071,216.462,411.413,217.967"/>
<path fill="#595859" d="M425.253,224.431H412.42c-0.277,0-0.485,0.277-0.485,0.623s0.208,0.622,0.485,0.622h12.865
	c0.277,0,0.485-0.276,0.485-0.622C425.771,224.708,425.528,224.431,425.253,224.431"/>
<path fill="#595859" d="M425.253,228.564H412.42c-0.277,0-0.485,0.277-0.485,0.623c0,0.347,0.208,0.622,0.485,0.622h12.865
	c0.277,0,0.485-0.275,0.485-0.622C425.771,228.842,425.528,228.564,425.253,228.564"/>
<path fill="#595859" d="M418.333,232.698h-5.914c-0.276,0-0.483,0.277-0.483,0.623c0,0.347,0.207,0.622,0.483,0.622h5.948
	c0.277,0,0.485-0.275,0.485-0.622C418.852,232.975,418.61,232.698,418.333,232.698"/>
</svg>
