<?xml version="1.0" encoding="utf-8"?>
<!-- Generator: Adobe Illustrator 16.0.0, SVG Export Plug-In . SVG Version: 6.00 Build 0)  -->
<!DOCTYPE svg PUBLIC "-//W3C//DTD SVG 1.1//EN" "http://www.w3.org/Graphics/SVG/1.1/DTD/svg11.dtd">
<svg version="1.1" id="Layer_1" xmlns="http://www.w3.org/2000/svg" xmlns:xlink="http://www.w3.org/1999/xlink" x="0px" y="0px"
	 width="40.417px" height="30.549px" viewBox="421.126 243.527 40.417 30.549"
	 enable-background="new 421.126 243.527 40.417 30.549" xml:space="preserve">
<path fill="#595859" d="M456.686,274.075h-14.07v-7.194c0-0.626,0.342-1.193,0.914-1.521c1.199-0.713,1.984-2.105,1.984-3.538
	c0-1.057-0.406-2.062-1.117-2.826v3.166c0,0.846-0.688,1.533-1.533,1.533h-3.063c-0.848,0-1.534-0.688-1.534-1.533v-3.146
	c-0.818,0.904-1.219,2.156-1.045,3.402c0.163,1.202,0.928,2.328,1.998,2.943l0.057,0.034c0.562,0.375,0.866,0.959,0.812,1.545v7.135
	h-14.11c-0.898,0-1.628-0.73-1.628-1.629v-8.717h-0.938c-0.957,0-1.793-0.577-2.134-1.471c-0.34-0.893-0.1-1.881,0.613-2.518
	l17.225-15.367c0.611-0.545,1.399-0.847,2.22-0.847c0.817,0,1.606,0.302,2.218,0.847l17.224,15.367
	c0.713,0.637,0.955,1.625,0.613,2.518c-0.34,0.893-1.178,1.47-2.134,1.47h-0.938v8.718
	C458.314,273.344,457.585,274.075,456.686,274.075 M444.615,272.075h11.699V261.73h2.938c0.161,0,0.232-0.101,0.265-0.184
	s0.045-0.205-0.076-0.312l-17.223-15.366c-0.245-0.219-0.562-0.339-0.888-0.339c-0.327,0-0.643,0.12-0.889,0.339l-17.223,15.366
	c-0.121,0.107-0.107,0.229-0.076,0.312c0.031,0.084,0.104,0.184,0.266,0.184h2.938v10.346h11.739v-5.061
	c-1.549-0.944-2.607-2.551-2.849-4.324c-0.325-2.319,0.711-4.665,2.641-5.969c0.252-0.171,0.546-0.261,0.849-0.261
	c0.848,0,1.537,0.689,1.537,1.538v3.694h2.131v-3.707c0-0.848,0.69-1.536,1.539-1.536c0.307,0,0.604,0.092,0.859,0.266
	c1.7,1.159,2.718,3.067,2.718,5.104c0,2.093-1.134,4.13-2.897,5.218L444.615,272.075L444.615,272.075z"/>
</svg>
